<?xml version="1.0" standalone="no"?>
<!DOCTYPE svg PUBLIC "-//W3C//DTD SVG 20010904//EN"
 "http://www.w3.org/TR/2001/REC-SVG-20010904/DTD/svg10.dtd">
<svg version="1.0" xmlns="http://www.w3.org/2000/svg"
 width="71.000000pt" height="71.000000pt" viewBox="0 0 71.000000 71.000000"
 preserveAspectRatio="xMidYMid meet">
<metadata>
Created by potrace 1.14, written by Peter Selinger 2001-2017
</metadata>
<g transform="translate(0.000000,71.000000) scale(0.100000,-0.100000)"
fill="#000000" stroke="none">
<path d="M471 653 c-16 -8 -37 -23 -46 -33 -16 -18 -18 -17 -52 6 -69 46 -168
36 -232 -24 -46 -43 -70 -97 -73 -158 -1 -35 -5 -44 -22 -46 -20 -3 -21 -9
-24 -181 l-2 -177 240 0 c170 0 246 -4 259 -12 17 -10 24 -8 48 16 28 28 28
30 29 157 1 135 6 156 51 212 104 129 -30 310 -176 240z m112 -53 c11 -44 -43
-86 -80 -62 -14 9 -24 55 -15 69 24 35 85 31 95 -7z m-226 -46 c18 -14 31 -29
28 -34 -3 -4 3 -31 12 -59 9 -28 13 -54 9 -58 -7 -7 -264 -8 -271 -1 -8 8 17
105 33 128 44 61 127 71 189 24z"/>
</g>
</svg>
